<svg width="108" height="72" viewBox="0 0 108 72" fill="none" xmlns="http://www.w3.org/2000/svg">
<g clip-path="url(#clip0_353_2899)">
<path d="M29.1871 21.191C27.8861 20.884 26.9541 21.683 26.3681 22.667C24.4701 25.854 21.5401 27.356 18.0581 28.048C17.1601 28.047 16.2621 28.047 15.3641 28.046C10.0531 27.484 6.02311 23.345 5.45711 17.869C5.45711 17.151 5.45611 16.433 5.45511 15.715C5.56211 15.19 5.65611 14.662 5.77911 14.14C7.36011 7.41099 13.8741 4.51099 19.8171 6.05499C22.8191 6.83499 24.9101 8.73499 26.5421 11.264C27.2991 12.436 28.6621 12.892 29.7671 12.308C30.9401 11.689 31.8551 10.33 31.2261 8.99199C30.7571 7.99199 30.0941 7.18299 29.4091 6.34699C26.4721 2.76299 22.7181 0.767992 18.1061 0.377992C17.1761 -0.037008 16.2451 -0.037008 15.3141 0.377992C14.8611 0.387992 14.3941 0.330992 13.9561 0.419992C10.0041 1.21599 6.60711 3.04999 4.01311 6.14699C1.98111 8.57199 0.462108 11.294 0.297108 14.575C-0.234892 15.164 0.125108 15.855 0.0781077 16.499C0.0781077 16.693 0.0781077 16.887 0.0791077 17.081C0.128108 17.816 -0.242892 18.593 0.297108 19.28C0.360108 19.765 0.325108 20.239 0.471108 20.74C1.47111 24.164 3.16511 27.098 5.94011 29.426C9.40011 32.328 13.2961 33.769 17.8221 33.421C18.2881 33.391 18.8091 33.709 19.2011 33.205C24.4141 32.476 28.1861 29.612 30.9181 25.243C31.2591 24.698 31.6651 24.143 31.3771 23.361C30.9751 22.268 30.3081 21.456 29.1871 21.191Z" fill="#F9F9FA"/>
<path d="M69.7377 42.6071C69.6087 41.5911 69.3007 40.6131 68.1057 40.3121C68.0087 40.2441 67.9117 40.1751 67.8137 40.1091C58.8957 39.9611 49.9767 40.0131 41.0587 40.0821C40.8887 40.0451 40.8037 40.1351 40.7597 40.2831C39.1457 40.8281 39.0107 42.1581 39.0117 43.5641C39.0197 51.4681 39.0247 59.3731 39.0367 67.2751C39.0377 67.7261 39.0297 68.1951 39.1377 68.6291C39.3487 69.4771 39.6647 70.2811 40.7207 70.3951C40.9557 70.8251 41.3657 70.6431 41.6957 70.6431C50.1907 70.6551 58.6857 70.6551 67.1807 70.6431C67.5117 70.6431 67.9217 70.8251 68.1557 70.3931C69.4637 70.0711 69.8847 69.0901 69.7207 67.9261C69.5597 66.7621 68.9327 65.8461 67.5947 65.7191C67.4557 65.3851 67.1537 65.4611 66.8977 65.4611C59.3767 65.4711 51.8557 65.4841 44.3347 65.5001C43.9467 65.3091 44.0947 64.9471 44.0947 64.6581C44.0877 58.3981 44.0897 52.1381 44.0937 45.8791C44.0937 45.6251 43.9937 45.3241 44.3337 45.1801C47.0627 45.1961 49.7947 45.2271 52.5257 45.2211C57.6217 45.2111 62.7167 45.1761 67.8137 45.1531C68.9317 44.6621 69.9187 44.0271 69.7377 42.6071Z" fill="#F9F9FA"/>
<path d="M43.7252 29.4199C46.0062 31.3589 48.5622 32.8109 51.6762 32.9299C52.9712 33.3589 54.2662 33.3589 55.5592 32.9299C61.4972 32.7489 68.1222 26.6129 68.6642 20.1019C69.0252 19.9019 68.9242 19.5509 68.9242 19.2499C68.9302 14.0569 68.9302 8.86391 68.9232 3.67091C68.9232 3.36991 69.0242 3.01891 68.6642 2.81691C68.1672 1.58291 67.2952 0.790912 65.9262 0.959912C64.7412 1.10591 63.9062 1.80991 63.7252 3.09091C63.4172 3.24891 63.4632 3.54191 63.4632 3.80591C63.4752 8.94791 63.4912 14.0899 63.5062 19.2329C63.0322 21.1569 62.4502 23.0579 61.0422 24.5179C58.0042 27.6689 54.3112 28.5359 50.2052 27.1519C46.2142 25.8069 44.2672 22.7519 43.7332 18.6889C43.7462 13.6359 43.7612 8.58491 43.7712 3.53191C43.7712 3.26891 43.8182 2.97491 43.5102 2.81791C43.0582 1.70491 42.3002 0.947912 41.0432 0.944912C39.7822 0.941912 39.0312 1.71191 38.5702 2.81491C38.2112 3.01191 38.3122 3.36191 38.3112 3.65991C38.3052 8.76891 38.3052 13.8769 38.3102 18.9859C38.3102 19.2849 38.2082 19.6339 38.5692 19.8299C38.6202 20.4539 38.6242 21.0619 38.8002 21.6949C39.6642 24.7819 41.3122 27.3689 43.7252 29.4199Z" fill="#F9F9FA"/>
<path d="M95.3515 50.4941C96.2595 52.6541 98.1045 53.0761 99.7735 51.4201C102.36 48.8561 104.862 46.2011 107.528 43.7211C109.038 42.3171 108.515 39.9891 106.689 39.4741C106.213 39.0521 105.739 39.0531 105.264 39.4741C104.797 39.5181 104.388 39.7181 104.067 40.0371C101.386 42.7011 98.6845 45.3441 96.0695 48.0741C95.4965 48.6701 94.9065 49.4391 95.3515 50.4941Z" fill="#F9F9FA"/>
<path d="M107.582 67.242C104.902 64.59 102.25 61.908 99.5951 59.232C98.8561 58.486 96.8881 58.298 96.1661 59.082C95.2401 60.086 94.6821 60.988 95.6701 62.299C97.2891 64.442 99.3541 66.162 101.22 68.069C102.258 69.132 103.199 70.311 104.485 71.116C105.889 71.993 107.404 71.464 108.04 69.874C108.444 69.3 108.44 68.724 108.04 68.149C108.08 67.748 107.861 67.52 107.582 67.242Z" fill="#F9F9FA"/>
<path d="M30.956 41.5429C30.941 41.4039 30.927 41.2659 30.913 41.1269C30.429 40.0939 29.451 39.5159 28.483 39.5859C27.774 39.6349 26.612 39.8359 26.527 41.0609C26.294 41.1409 26.233 41.3209 26.251 41.5429C25.794 41.9489 26.019 42.4839 26.017 42.9529C25.989 49.1759 25.985 55.3979 25.975 61.6209C25.322 61.7619 24.934 61.3299 24.619 60.9019C22.576 58.1309 19.908 55.9469 17.596 53.4249C13.572 49.0359 9.323 44.8529 5.269 40.4859C3.562 38.6469 1.607 39.0759 0.625 41.4059C0.625 50.6029 0.625 59.8009 0.626 68.9999C1.003 70.2729 1.885 71.1889 3.164 71.1269C4.285 71.0719 5.439 70.5349 5.511 69.0449C6.025 68.6679 5.757 68.1249 5.759 67.6699C5.782 61.4649 5.779 55.2579 5.781 49.0529C6.533 49.0859 6.977 49.6189 7.437 50.1019C10.58 53.3969 13.699 56.7169 16.853 60.0019C20.239 63.5289 23.658 67.0229 27.055 70.5389C27.288 70.7789 27.506 70.9839 27.864 70.9409C28.356 71.3589 28.848 71.3589 29.339 70.9409C30.195 70.8569 30.48 70.1069 30.944 69.5639C31.22 69.4529 31.198 69.2299 31.152 68.9999C31.167 60.0899 31.184 51.1839 31.197 42.2749C31.197 42.0079 31.236 41.7209 30.956 41.5429Z" fill="#F9F9FA"/>
<path d="M96.0052 41.641C95.6872 40.039 94.1072 38.668 92.5782 38.668C91.0502 38.67 89.4682 40.043 89.1512 41.643C88.7492 42.207 88.7432 42.772 89.1532 43.338C89.4912 44.627 90.3062 45.44 91.5922 45.779C92.2492 46.207 92.9052 46.207 93.5632 45.779C94.8452 45.437 95.6642 44.627 96.0042 43.341C96.4132 42.773 96.4032 42.207 96.0052 41.641Z" fill="#F9F9FA"/>
<path d="M94.6386 54.7601C94.6836 54.4011 94.4716 54.1941 94.2336 53.9571C89.5336 49.2751 84.8416 44.5841 80.1586 39.8851C79.9226 39.6501 79.7216 39.4281 79.3606 39.4711C78.8776 39.0431 78.3916 39.0491 77.9086 39.4691C76.8456 39.5321 76.4856 40.3481 76.1076 41.1451C76.0966 41.6201 75.8136 42.1311 76.2986 42.5401C76.2316 43.0361 76.6226 43.2531 76.9056 43.5341C80.4526 47.0771 83.9996 50.6161 87.5446 54.1591C88.6986 55.3131 88.7106 55.6261 87.6086 56.7291C84.1326 60.2111 80.6506 63.6901 77.1676 67.1651C76.8856 67.4481 76.4766 67.6421 76.5696 68.1471C76.1706 68.7251 76.1736 69.3031 76.5666 69.8811C77.1836 71.6061 79.1386 72.1101 80.3896 70.8581C84.9776 66.2741 89.5596 61.6841 94.1486 57.1001C94.4076 56.8421 94.7066 56.6231 94.6376 56.1961C95.0616 55.7171 95.0636 55.2381 94.6386 54.7601Z" fill="#F9F9FA"/>
<path d="M67.4753 53.0036C63.1563 53.0016 58.8373 53.0016 54.5193 53.0056C54.2583 53.0056 53.9613 52.9406 53.8053 53.2536C52.7633 53.6916 51.8853 54.4216 52.0123 55.5756C52.1383 56.7246 52.7303 57.7796 54.1263 57.9586C54.1683 58.1166 54.2563 58.2046 54.4323 58.1576C58.5763 58.1716 62.7173 58.1836 66.8593 58.1916C67.1053 58.1916 67.3933 58.2596 67.5373 57.9656C67.5523 57.9666 67.5633 57.9666 67.5783 57.9666C68.8513 57.8596 69.5023 56.9426 69.6703 55.8936C69.8493 54.7816 69.5433 53.6556 68.2093 53.2406C68.0293 52.9606 67.7423 53.0036 67.4753 53.0036Z" fill="#F9F9FA"/>
</g>
<defs>
<clipPath id="clip0_353_2899">
<rect width="108.41" height="71.49" fill="white"/>
</clipPath>
</defs>
</svg>
