<svg width="28" height="33" viewBox="0 0 28 33" fill="none" xmlns="http://www.w3.org/2000/svg">
<mask id="path-1-outside-1_711_166" maskUnits="userSpaceOnUse" x="0.299805" y="0.29303" width="28" height="33" fill="black">
<rect fill="white" x="0.299805" y="0.29303" width="28" height="33"/>
<path d="M20.6966 3.11937C16.7235 0.722973 11.7936 0.682241 7.78285 3.01267C3.77208 5.34311 1.29715 9.68636 1.29981 14.3898V14.3898C1.42066 17.8438 2.58221 21.1763 4.62672 23.9346C7.07006 27.2391 10.079 30.067 13.5087 32.2825C13.7263 32.4146 13.9728 32.4894 14.2259 32.5002C14.4889 32.4592 14.7424 32.3697 14.9737 32.2359C17.2202 30.7614 19.2895 29.024 21.1392 27.0593C24.344 23.6704 26.9079 19.2866 26.9995 14.623C27.0218 9.92855 24.6307 5.56458 20.6966 3.11937Z"/>
</mask>
<path d="M20.6966 3.11937C16.7235 0.722973 11.7936 0.682241 7.78285 3.01267C3.77208 5.34311 1.29715 9.68636 1.29981 14.3898V14.3898C1.42066 17.8438 2.58221 21.1763 4.62672 23.9346C7.07006 27.2391 10.079 30.067 13.5087 32.2825C13.7263 32.4146 13.9728 32.4894 14.2259 32.5002C14.4889 32.4592 14.7424 32.3697 14.9737 32.2359C17.2202 30.7614 19.2895 29.024 21.1392 27.0593C24.344 23.6704 26.9079 19.2866 26.9995 14.623C27.0218 9.92855 24.6307 5.56458 20.6966 3.11937Z" fill="#E26385"/>
<path d="M20.6966 3.11937L20.9606 2.69468L20.9549 2.69122L20.6966 3.11937ZM4.62672 23.9346L5.02876 23.6374L5.02841 23.6369L4.62672 23.9346ZM13.5087 32.2825L13.2373 32.7027L13.2493 32.71L13.5087 32.2825ZM14.2259 32.5002L14.2047 32.9997L14.254 33.0018L14.3028 32.9942L14.2259 32.5002ZM14.9737 32.2359L15.224 32.6687L15.2363 32.6616L15.2481 32.6539L14.9737 32.2359ZM21.1392 27.0593L20.7759 26.7157L20.7752 26.7165L21.1392 27.0593ZM26.9995 14.623L27.4994 14.6328L27.4995 14.6253L26.9995 14.623ZM20.9549 2.69122C16.8255 0.200571 11.7003 0.158179 7.53165 2.58035L8.03405 3.44499C11.8869 1.2063 16.6215 1.24538 20.4384 3.54752L20.9549 2.69122ZM7.53165 2.58035C3.36412 5.00187 0.797052 9.51148 0.799807 14.3901L1.79981 14.3895C1.79725 9.86124 4.18003 5.68434 8.03405 3.44499L7.53165 2.58035ZM0.800113 14.4073C0.924479 17.9618 2.11981 21.3921 4.22504 24.2324L5.02841 23.6369C3.04461 20.9605 1.91684 17.7259 1.7995 14.3723L0.800113 14.4073ZM4.22469 24.2319C6.70362 27.5845 9.75671 30.4541 13.2374 32.7025L13.78 31.8625C10.4012 29.68 7.43651 26.8937 5.02876 23.6374L4.22469 24.2319ZM13.2493 32.71C13.5386 32.8855 13.867 32.9853 14.2047 32.9997L14.2472 32.0006C14.0787 31.9934 13.914 31.9436 13.7681 31.8551L13.2493 32.71ZM14.3028 32.9942C14.6272 32.9437 14.9394 32.8333 15.224 32.6687L14.7235 31.803C14.5454 31.906 14.3507 31.9747 14.1491 32.0061L14.3028 32.9942ZM15.2481 32.6539C17.5275 31.1578 19.6268 29.3952 21.5033 27.402L20.7752 26.7165C18.9522 28.6529 16.913 30.365 14.6994 31.8179L15.2481 32.6539ZM21.5025 27.4028C24.752 23.9667 27.4044 19.4695 27.4994 14.6328L26.4996 14.6131C26.4114 19.1036 23.9361 23.374 20.7759 26.7157L21.5025 27.4028ZM27.4995 14.6253C27.5226 9.76011 25.0446 5.23311 20.9606 2.69471L20.4327 3.54403C24.2169 5.89605 26.5209 10.097 26.4995 14.6206L27.4995 14.6253Z" fill="white" mask="url(#path-1-outside-1_711_166)"/>
<circle cx="14" cy="14" r="7" fill="white"/>
</svg>
